<?xml version="1.0" encoding="utf-8"?>
<!-- Generator: Adobe Illustrator 27.8.1, SVG Export Plug-In . SVG Version: 6.00 Build 0)  -->
<svg version="1.2" baseProfile="tiny" id="Layer_1" xmlns="http://www.w3.org/2000/svg" xmlns:xlink="http://www.w3.org/1999/xlink"
	 x="0px" y="0px" viewBox="0 0 23.42 23.33" overflow="visible" xml:space="preserve">
<g>
	<path d="M21.36,0H2.06C0.92,0,0,0.92,0,2.06v19.21c0,1.14,0.92,2.06,2.06,2.06h19.3c1.14,0,2.06-0.92,2.06-2.06V2.06
		C23.42,0.92,22.5,0,21.36,0z M2.06,1.37h19.3c0.38,0,0.69,0.31,0.69,0.69v3.43H1.37V2.06C1.37,1.68,1.68,1.37,2.06,1.37z
		 M21.36,21.96H2.06c-0.38,0-0.69-0.31-0.69-0.69V6.86h20.68v14.41C22.05,21.65,21.74,21.96,21.36,21.96z"/>
	<path d="M14.04,8.98c-0.35-0.15-0.75,0.01-0.9,0.36l-4.12,9.61c-0.15,0.35,0.01,0.75,0.36,0.9c0.35,0.15,0.75-0.01,0.9-0.36
		l4.12-9.61C14.55,9.53,14.39,9.13,14.04,8.98L14.04,8.98z"/>
	<path d="M8.13,11.24c-0.24-0.3-0.67-0.34-0.96-0.11l-3.43,2.74c-0.34,0.27-0.34,0.8,0,1.07l3.43,2.74c0.3,0.24,0.73,0.19,0.96-0.11
		c0.24-0.3,0.19-0.73-0.11-0.96l-2.76-2.21l2.76-2.21C8.32,11.96,8.37,11.53,8.13,11.24L8.13,11.24z"/>
	<path d="M19.69,13.87l-3.43-2.74c-0.3-0.24-0.73-0.19-0.96,0.11c-0.24,0.3-0.19,0.73,0.11,0.96l2.76,2.21l-2.76,2.21
		c-0.3,0.24-0.34,0.67-0.11,0.96c0.24,0.3,0.67,0.34,0.96,0.11l3.43-2.74C20.03,14.67,20.03,14.15,19.69,13.87z"/>
	<circle cx="3.48" cy="3.43" r="0.69"/>
	<circle cx="6.22" cy="3.43" r="0.69"/>
	<circle cx="8.97" cy="3.43" r="0.69"/>
	<path d="M15.83,4.12h4.12c0.38,0,0.69-0.31,0.69-0.69s-0.31-0.69-0.69-0.69h-4.12c-0.38,0-0.69,0.31-0.69,0.69
		S15.45,4.12,15.83,4.12z"/>
</g>
</svg>
