<?xml version="1.0" encoding="utf-8"?>
<!-- Generator: Adobe Illustrator 27.8.1, SVG Export Plug-In . SVG Version: 6.00 Build 0)  -->
<svg version="1.2" baseProfile="tiny" id="Layer_1" xmlns="http://www.w3.org/2000/svg" xmlns:xlink="http://www.w3.org/1999/xlink"
	 x="0px" y="0px" viewBox="0 0 26.31 26.31" overflow="visible" xml:space="preserve">
<g>
	<path d="M18.3,15.43c-0.14-0.25-0.46-0.33-0.7-0.19c-0.25,0.14-0.33,0.46-0.19,0.7l0.9,1.56l-1.7,4.75H9.75l-1.7-4.75l4.62-8v3.39
		c0,0.28,0.23,0.51,0.51,0.51s0.51-0.23,0.51-0.51V9.5l1.66,2.88c0.14,0.25,0.46,0.33,0.7,0.19c0.25-0.14,0.33-0.46,0.19-0.7
		l-2.62-4.54c-0.01-0.01-0.01-0.02-0.02-0.03c0,0,0,0,0,0c-0.01-0.01-0.02-0.02-0.02-0.03c0,0,0-0.01-0.01-0.01
		c-0.01-0.01-0.02-0.02-0.03-0.03c0,0,0,0,0,0c-0.01-0.01-0.02-0.02-0.03-0.03c0,0-0.01,0-0.01-0.01c-0.01-0.01-0.02-0.02-0.03-0.02
		c0,0,0,0-0.01,0c-0.01-0.01-0.02-0.02-0.04-0.02c0,0-0.01,0-0.01-0.01c-0.01-0.01-0.02-0.01-0.03-0.01c0,0-0.01,0-0.01,0
		c-0.01-0.01-0.03-0.01-0.04-0.01c0,0-0.01,0-0.01,0c-0.01,0-0.02-0.01-0.03-0.01c0,0-0.01,0-0.01,0c-0.01,0-0.03-0.01-0.04-0.01
		c0,0-0.01,0-0.01,0c-0.02,0-0.03,0-0.05,0c-0.02,0-0.03,0-0.05,0c0,0-0.01,0-0.01,0c-0.01,0-0.03,0-0.04,0.01c0,0-0.01,0-0.01,0
		c-0.01,0-0.02,0.01-0.03,0.01c0,0-0.01,0-0.01,0c-0.01,0-0.03,0.01-0.04,0.01c0,0-0.01,0-0.01,0c-0.01,0-0.02,0.01-0.03,0.01
		c0,0-0.01,0-0.01,0.01c-0.01,0.01-0.02,0.01-0.04,0.02c0,0,0,0-0.01,0c-0.01,0.01-0.02,0.01-0.03,0.02c0,0-0.01,0-0.01,0.01
		c-0.01,0.01-0.02,0.02-0.03,0.03c0,0,0,0,0,0c-0.01,0.01-0.02,0.02-0.03,0.03c0,0-0.01,0.01-0.01,0.01
		c-0.01,0.01-0.02,0.02-0.02,0.03c0,0,0,0,0,0.01c-0.01,0.01-0.01,0.02-0.02,0.03l-5.7,9.86C6.96,17.32,6.95,17.48,7,17.62
		l1.65,4.63H7.86c-0.28,0-0.51,0.23-0.51,0.51v3.04c0,0.28,0.23,0.51,0.51,0.51H18.5c0.28,0,0.51-0.23,0.51-0.51v-3.04
		c0-0.28-0.23-0.51-0.51-0.51h-0.79l1.65-4.63c0.05-0.14,0.04-0.3-0.04-0.43L18.3,15.43z M17.98,25.29h-9.6v-2.01h1c0,0,0,0,0,0
		c0,0,0,0,0,0h7.59c0,0,0,0,0,0c0,0,0,0,0,0h1V25.29z"/>
	<path d="M17.34,13.9c0-0.28-0.23-0.51-0.51-0.51c-0.28,0-0.51,0.23-0.51,0.51c0,0.28,0.23,0.51,0.51,0.51
		C17.11,14.42,17.34,14.19,17.34,13.9z"/>
	<path d="M11.15,17.45c0,1.12,0.91,2.03,2.03,2.03c1.12,0,2.03-0.91,2.03-2.03c0-1.12-0.91-2.03-2.03-2.03
		C12.06,15.41,11.15,16.33,11.15,17.45z M14.18,17.45c0,0.55-0.45,1-1,1c-0.55,0-1-0.45-1-1c0-0.55,0.45-1,1-1
		C13.73,16.44,14.18,16.89,14.18,17.45z"/>
	<path d="M24.28,4.07c1.12,0,2.03-0.91,2.03-2.03C26.31,0.91,25.4,0,24.28,0c-0.94,0-1.74,0.65-1.97,1.52h-7.1V0.51
		C15.21,0.23,14.98,0,14.7,0h-3.04c-0.28,0-0.51,0.23-0.51,0.51v1H4C3.77,0.65,2.98,0,2.03,0C0.91,0,0,0.91,0,2.03
		c0,1.12,0.91,2.03,2.03,2.03c0.94,0,1.74-0.65,1.97-1.52h3.68C5.13,3.95,3.41,6.66,3.41,9.77v1.09h-1c-0.28,0-0.51,0.23-0.51,0.51
		v3.04c0,0.28,0.23,0.51,0.51,0.51h3.04c0.28,0,0.51-0.23,0.51-0.51v-3.04c0-0.28-0.23-0.51-0.51-0.51h-1V9.77
		c0-3.81,2.97-6.94,6.71-7.21v0.99c0,0.28,0.23,0.51,0.51,0.51h3.04c0.28,0,0.51-0.23,0.51-0.51V2.57c3.74,0.26,6.71,3.4,6.71,7.21
		v1.09h-1c-0.28,0-0.51,0.23-0.51,0.51v3.04c0,0.28,0.23,0.51,0.51,0.51h3.04c0.28,0,0.51-0.23,0.51-0.51v-3.04
		c0-0.28-0.23-0.51-0.51-0.51h-1V9.77c0-2.2-0.86-4.28-2.42-5.84c-0.55-0.55-1.17-1.02-1.84-1.39h3.62
		C22.54,3.42,23.34,4.07,24.28,4.07z M4.93,13.9H2.92v-2.01h1c0,0,0,0,0.01,0s0,0,0.01,0h1V13.9z M23.44,13.9h-2.01v-2.01h1
		c0,0,0,0,0.01,0c0,0,0,0,0.01,0h1V13.9z M24.28,1.03c0.55,0,1,0.45,1,1c0,0.55-0.45,1-1,1c-0.55,0-1-0.45-1-1c0,0,0,0,0,0
		c0,0,0,0,0,0C23.28,1.48,23.73,1.03,24.28,1.03z M2.03,3.04c-0.55,0-1-0.45-1-1c0-0.55,0.45-1,1-1c0.55,0,1,0.45,1,1
		C3.04,2.59,2.59,3.04,2.03,3.04z M14.18,3.04h-2.01v-1c0,0,0,0,0,0c0,0,0,0,0,0v-1h2.01V3.04z"/>
</g>
</svg>
