<?xml version="1.0" encoding="utf-8"?>
<!-- Generator: Adobe Illustrator 27.8.1, SVG Export Plug-In . SVG Version: 6.00 Build 0)  -->
<svg version="1.2" baseProfile="tiny" id="Layer_1" xmlns="http://www.w3.org/2000/svg" xmlns:xlink="http://www.w3.org/1999/xlink"
	 x="0px" y="0px" viewBox="0 0 23.43 23.33" overflow="visible" xml:space="preserve">
<g>
	<path d="M21.37,0H2.06C0.92,0,0,0.92,0,2.06v19.22c0,1.14,0.92,2.06,2.06,2.06h19.31c1.14,0,2.06-0.92,2.06-2.06V2.06
		C23.43,0.92,22.5,0,21.37,0z M2.06,1.37h19.31c0.38,0,0.69,0.31,0.69,0.69v3.43H1.37V2.06C1.37,1.68,1.68,1.37,2.06,1.37z
		 M21.37,21.96H2.06c-0.38,0-0.69-0.31-0.69-0.69V6.86h20.68v14.41C22.05,21.65,21.75,21.96,21.37,21.96z"/>
	<circle cx="3.48" cy="3.43" r="0.69"/>
	<circle cx="6.22" cy="3.43" r="0.69"/>
	<circle cx="8.97" cy="3.43" r="0.69"/>
	<path d="M15.83,4.12h4.12c0.38,0,0.69-0.31,0.69-0.69s-0.31-0.69-0.69-0.69h-4.12c-0.38,0-0.69,0.31-0.69,0.69
		S15.45,4.12,15.83,4.12z"/>
	<path d="M18.61,14.19H4.67c-0.62,0-1.13-0.51-1.13-1.13v-2.78c0-0.62,0.51-1.13,1.13-1.13h13.94c0.62,0,1.13,0.51,1.13,1.13v2.78
		C19.74,13.68,19.24,14.19,18.61,14.19z M4.79,12.94H18.5V10.4H4.79V12.94z"/>
	<path d="M18.61,20.32H10.8c-0.62,0-1.13-0.51-1.13-1.13v-2.78c0-0.62,0.51-1.13,1.13-1.13h7.81c0.62,0,1.13,0.51,1.13,1.13v2.78
		C19.74,19.81,19.24,20.32,18.61,20.32z M10.92,19.07h7.58v-2.54h-7.58V19.07z"/>
</g>
</svg>
