<?xml version="1.0" encoding="utf-8"?>
<!-- Generator: Adobe Illustrator 27.7.0, SVG Export Plug-In . SVG Version: 6.00 Build 0)  -->
<svg version="1.2" baseProfile="tiny" id="Layer_1" xmlns="http://www.w3.org/2000/svg" xmlns:xlink="http://www.w3.org/1999/xlink"
	 x="0px" y="0px" viewBox="0 0 30.97 30.97" overflow="visible" xml:space="preserve">
<g>
	<path id="background_00000074409963011464759180000015503331719430325406_" fill="#FFCA00" d="M4.22,0h22.53
		c2.33,0,4.22,1.89,4.22,4.22v22.53c0,2.33-1.89,4.22-4.22,4.22H4.22C1.89,30.97,0,29.08,0,26.75V4.22C0,1.89,1.89,0,4.22,0z"/>
	<path fill="#1B2124" d="M22.47,20.86c-0.64,0.8-1.61,1.76-2.73,1.9c-1.95,0.25-4.81-0.5-8.07-4.27l-0.04-0.04
		c-2.87-3.3-3.43-5.85-3.02-7.78c0.23-1.09,1.26-2,2.11-2.57c0.48-0.32,1.12-0.2,1.45,0.27c0.06,0.08,0.1,0.18,0.13,0.27l0.89,2.76
		c0.12,0.37,0.02,0.77-0.24,1.04l-0.68,0.71c-0.3,0.3-0.38,0.74-0.22,1.13c0.27,0.62,0.97,1.56,1.77,2.45c0.89,1,1.9,1.94,2.57,2.3
		c0.36,0.2,0.81,0.15,1.13-0.11l0.76-0.62c0.3-0.24,0.7-0.3,1.06-0.15l2.7,1.09c0.54,0.23,0.79,0.85,0.56,1.39
		C22.57,20.72,22.53,20.79,22.47,20.86L22.47,20.86z"/>
</g>
</svg>
