<?xml version="1.0" encoding="utf-8"?>
<!-- Generator: Adobe Illustrator 27.8.1, SVG Export Plug-In . SVG Version: 6.00 Build 0)  -->
<svg version="1.2" baseProfile="tiny" id="Layer_1" xmlns="http://www.w3.org/2000/svg" xmlns:xlink="http://www.w3.org/1999/xlink"
	 x="0px" y="0px" viewBox="0 0 32.75 32.75" overflow="visible" xml:space="preserve">
<g>
	<path fill="#FFFFFF" d="M27.78,32.75H4.96C2.22,32.75,0,30.52,0,27.78V4.96C0,2.22,2.22,0,4.96,0h22.82c2.74,0,4.96,2.22,4.96,4.96
		v22.82C32.75,30.52,30.52,32.75,27.78,32.75z"/>
	<path d="M9.99,6.98c0.86,0,1.72,0,2.58,0c0.11,0,0.17,0.03,0.24,0.12c0.4,0.59,0.81,1.17,1.21,1.75c0.46,0.67,0.92,1.35,1.38,2.02
		c0.22,0.32,0.45,0.64,0.68,0.97c0.29,0.42,0.56,0.83,0.85,1.25c0.15,0.22,0.3,0.44,0.46,0.66c0.06,0.09,0.1,0.1,0.17-0.01
		c0.18-0.27,0.43-0.5,0.64-0.75c0.41-0.5,0.85-0.99,1.28-1.48c0.49-0.57,0.98-1.14,1.47-1.71c0.6-0.69,1.2-1.38,1.8-2.07
		c0.19-0.22,0.37-0.44,0.56-0.66c0.06-0.06,0.11-0.09,0.19-0.09c0.45,0,0.91-0.01,1.36-0.01c0.04,0,0.1-0.01,0.11,0.05
		c0.02,0.05-0.02,0.08-0.05,0.12c-0.4,0.46-0.79,0.92-1.19,1.37C23.3,9,22.87,9.49,22.45,9.98c-0.35,0.4-0.7,0.81-1.04,1.22
		c-0.61,0.71-1.21,1.42-1.82,2.13c-0.32,0.37-0.64,0.74-0.97,1.11c-0.13,0.14-0.25,0.29-0.37,0.44c-0.05,0.05-0.04,0.1-0.01,0.15
		c0.22,0.31,0.43,0.62,0.65,0.93c0.29,0.42,0.58,0.85,0.87,1.27c0.27,0.39,0.54,0.78,0.8,1.17c0.34,0.49,0.68,0.99,1.02,1.48
		c0.36,0.52,0.72,1.04,1.08,1.57c0.29,0.42,0.57,0.83,0.85,1.25c0.28,0.41,0.57,0.82,0.85,1.23c0.34,0.5,0.68,1,1.02,1.5
		c0.05,0.07,0.11,0.14,0.15,0.21c0.06,0.1,0.03,0.15-0.08,0.15c-1.73,0-3.47,0-5.2,0c-0.12,0-0.19-0.06-0.24-0.15
		c-0.21-0.31-0.42-0.62-0.63-0.92c-0.42-0.61-0.84-1.21-1.25-1.81c-0.35-0.51-0.69-1.03-1.04-1.54c-0.34-0.49-0.68-0.97-1.02-1.46
		c-0.28-0.41-0.57-0.82-0.84-1.24c-0.07-0.11-0.12-0.14-0.21-0.03c-0.33,0.38-0.66,0.77-0.99,1.15c-0.72,0.83-1.44,1.67-2.15,2.5
		c-0.46,0.53-0.91,1.07-1.37,1.6c-0.45,0.52-1.72,1.91-1.72,1.91H7.17c0,0,0.69-0.79,0.98-1.12c0.45-0.52,0.89-1.03,1.34-1.55
		c0.6-0.7,1.19-1.4,1.79-2.1c0.28-0.33,0.57-0.65,0.86-0.98c0.5-0.58,1-1.16,1.5-1.74c0.22-0.25,0.43-0.51,0.65-0.75
		c0.06-0.07,0.07-0.13,0.02-0.21c-0.28-0.41-0.56-0.82-0.84-1.24c-0.34-0.49-0.68-0.99-1.02-1.48c-0.37-0.53-0.74-1.07-1.11-1.6
		c-0.27-0.39-0.54-0.79-0.81-1.19c-0.35-0.51-0.71-1.02-1.06-1.53C9.12,9.77,8.78,9.26,8.43,8.76C8.15,8.35,7.87,7.95,7.59,7.54
		C7.48,7.38,7.37,7.21,7.25,7.06C7.2,7.01,7.24,7,7.28,6.99c0.05-0.01,0.11-0.01,0.17-0.01C8.3,6.98,9.15,6.98,9.99,6.98
		C9.99,6.98,9.99,6.98,9.99,6.98z M22.08,24.57c0.35,0,0.71,0,1.06,0c0.05,0,0.11,0.01,0.14-0.03c0.03-0.06-0.03-0.09-0.05-0.13
		c-0.31-0.45-0.63-0.9-0.95-1.35c-0.28-0.41-0.56-0.82-0.85-1.23c-0.47-0.67-0.94-1.33-1.41-2c-0.4-0.57-0.79-1.14-1.19-1.71
		c-0.31-0.44-0.62-0.88-0.93-1.33c-0.3-0.43-0.6-0.86-0.9-1.29c-0.24-0.34-0.47-0.67-0.71-1.01c-0.24-0.34-0.47-0.68-0.71-1.01
		c-0.38-0.54-0.75-1.07-1.13-1.61c-0.28-0.4-0.57-0.81-0.85-1.21c-0.3-0.43-0.6-0.87-0.9-1.3c-0.23-0.33-0.46-0.65-0.69-0.98
		c-0.06-0.09-0.14-0.12-0.24-0.12c-0.67,0-1.33,0-2,0c-0.05,0-0.09,0-0.14,0c-0.07,0.01-0.1,0.04-0.05,0.11
		c0.04,0.06,0.07,0.12,0.12,0.18c0.24,0.34,0.49,0.68,0.73,1.02c0.3,0.43,0.6,0.86,0.9,1.29c0.36,0.52,0.73,1.03,1.09,1.54
		c0.3,0.43,0.59,0.85,0.89,1.28c0.38,0.55,0.77,1.1,1.15,1.65c0.22,0.3,0.42,0.61,0.63,0.92c0.23,0.34,0.48,0.66,0.71,0.99
		c0.36,0.52,0.72,1.05,1.08,1.57c0.43,0.62,0.87,1.23,1.3,1.84c0.4,0.57,0.8,1.15,1.2,1.72c0.48,0.69,0.96,1.38,1.44,2.07
		c0.06,0.09,0.13,0.13,0.25,0.13C21.4,24.56,21.74,24.57,22.08,24.57z"/>
</g>
</svg>
