<?xml version="1.0" encoding="utf-8"?>
<!-- Generator: Adobe Illustrator 27.7.0, SVG Export Plug-In . SVG Version: 6.00 Build 0)  -->
<svg version="1.1" baseProfile="basic" id="Layer_1"
	 xmlns="http://www.w3.org/2000/svg" xmlns:xlink="http://www.w3.org/1999/xlink" x="0px" y="0px" viewBox="0 0 68.19 80.62"
	 xml:space="preserve">
<path opacity="0.7" fill="#FFFFFF" d="M66.3,60.95l-7.6-10.29c-2.93-4.12-8.03-4.92-12.19-1.87l-5.44,4.03
	c-0.22-0.16-0.45-0.33-0.71-0.5c-0.51-0.36-0.99-0.7-1.41-1.07c-4.3-3.73-8.03-8.32-11.4-14.02c-1.51-2.64-2.49-4.8-3.13-6.9
	c1.36-0.93,2.66-1.9,3.93-2.86l1.56-1.17c2.12-1.56,3.41-3.55,3.74-5.75c0.33-2.22-0.32-4.51-1.88-6.61l-5.05-6.88
	C25.89,5.88,25,4.66,24.14,3.58c-2.97-3.95-7.99-4.75-12.17-1.81L5.55,6.51C2.99,8.39,1.32,10.91,0.59,14
	c-0.86,3.69-0.78,7.74,0.27,12.74c1.57,7.62,4.56,14.9,9.42,22.91l0,0c5.89,9.68,13.54,17.77,22.74,24.08
	c3.55,2.39,8.35,5.3,14,6.53c0.36,0.07,0.7,0.13,1.06,0.19c4.05,0.61,7.52-0.3,10.47-2.69l0.26-0.2c0.91-0.81,1.92-1.54,2.99-2.3
	l0.23-0.17c0.82-0.58,1.65-1.18,2.46-1.8C68.65,70.07,69.37,65.12,66.3,60.95z M19.91,26.12c-2.17,1.61-1.81,3.65-1.65,4.54
	c0.77,3.09,2.03,6.05,4.08,9.61c3.69,6.28,7.83,11.36,12.63,15.53c0.5,0.45,1.03,0.83,1.56,1.2l0.36,0.26c0.52,0.36,1,0.7,1.41,1.07
	l0.24,0.18c0.59,0.43,1.23,0.69,1.89,0.79c0.77,0.12,1.97,0.06,3.24-0.89l6.41-4.73c0.75-0.56,1.46-0.8,2.07-0.71
	c0.79,0.12,1.37,0.83,1.68,1.27l7.64,10.33c1.14,1.54,0.93,2.78-0.68,4.02c-0.71,0.56-1.45,1.09-2.38,1.75
	c-1.18,0.84-2.39,1.71-3.51,2.7c-1.91,1.53-4,1.92-6.61,1.38c-4.65-1.01-8.79-3.53-11.86-5.61C27.94,63,20.88,55.52,15.44,46.58
	c-4.48-7.41-7.24-14.09-8.68-21.03c-0.88-4.12-0.98-7.35-0.32-10.17c0.42-1.71,1.28-3,2.7-4.05l6.36-4.7
	c1.63-1.16,3.13-0.36,3.85,0.63c0.76,0.95,1.46,1.92,2.21,2.95l5.36,7.31c0.41,0.56,0.88,1.39,0.77,2.14s-0.8,1.4-1.36,1.81
	l-2.14,1.6C22.8,24.11,21.48,25.09,19.91,26.12z"/>
</svg>
