<?xml version="1.0" encoding="utf-8"?>
<!-- Generator: Adobe Illustrator 27.7.0, SVG Export Plug-In . SVG Version: 6.00 Build 0)  -->
<svg version="1.2" baseProfile="tiny" id="Layer_1" xmlns="http://www.w3.org/2000/svg" xmlns:xlink="http://www.w3.org/1999/xlink"
	 x="0px" y="0px" viewBox="0 0 32.75 32.75" overflow="visible" xml:space="preserve">
<g>
	<path fill="#0274B3" d="M27.78,32.75H4.96C2.22,32.75,0,30.52,0,27.78V4.96C0,2.22,2.22,0,4.96,0h22.82c2.74,0,4.96,2.22,4.96,4.96
		v22.82C32.75,30.52,30.52,32.75,27.78,32.75z"/>
	<g>
		<path fill="#FFFFFF" d="M24.45,24.46L24.45,24.46L24.45,24.46l0-5.93c0-2.9-0.62-5.14-4.02-5.14c-1.63,0-2.72,0.89-3.17,1.74
			h-0.05v-1.47h-3.22v10.8h3.35v-5.35c0-1.41,0.27-2.77,2.01-2.77c1.72,0,1.74,1.61,1.74,2.86v5.26L24.45,24.46z"/>
		<path fill="#FFFFFF" d="M8.55,13.66h3.35v10.8H8.55V13.66z"/>
		<path fill="#FFFFFF" d="M10.23,8.29c-1.07,0-1.94,0.87-1.94,1.94s0.87,1.96,1.94,1.96s1.94-0.89,1.94-1.96
			C12.17,9.16,11.3,8.29,10.23,8.29z"/>
	</g>
</g>
</svg>
