<?xml version="1.0" encoding="utf-8"?>
<!-- Generator: Adobe Illustrator 27.7.0, SVG Export Plug-In . SVG Version: 6.00 Build 0)  -->
<svg version="1.1" baseProfile="basic" id="Layer_1"
	 xmlns="http://www.w3.org/2000/svg" xmlns:xlink="http://www.w3.org/1999/xlink" x="0px" y="0px" viewBox="0 0 70.44 51.73"
	 xml:space="preserve">
<path opacity="0.7" fill="#FFFFFF" d="M62.18,0H8.25C3.7,0,0,3.7,0,8.25v35.22c0,4.55,3.7,8.25,8.25,8.25h53.93
	c4.55,0,8.25-3.7,8.25-8.25V8.25C70.44,3.7,66.73,0,62.18,0z M61.68,5.5L35.22,25.19L8.76,5.5H61.68z M62.18,46.22H8.25
	c-1.52,0-2.75-1.23-2.75-2.75V9.94l29.71,22.1l29.71-22.1v33.53C64.93,44.99,63.7,46.22,62.18,46.22z"/>
</svg>
