<?xml version="1.0" encoding="utf-8"?>
<!-- Generator: Adobe Illustrator 27.7.0, SVG Export Plug-In . SVG Version: 6.00 Build 0)  -->
<svg version="1.1" baseProfile="basic" id="Layer_1"
	 xmlns="http://www.w3.org/2000/svg" xmlns:xlink="http://www.w3.org/1999/xlink" x="0px" y="0px" viewBox="0 0 71.86 99.2"
	 xml:space="preserve">
<g opacity="0.7">
	<g>
		<g>
			<path fill="#FFFFFF" d="M35.93,0C16.12,0,0,16.12,0,35.93c0,24.59,32.15,60.68,33.52,62.2c1.29,1.43,3.53,1.43,4.81,0
				c1.37-1.52,33.52-37.62,33.52-62.2C71.86,16.12,55.74,0,35.93,0z M35.93,91.01C25.11,78.16,6.47,52.8,6.47,35.93
				c0-16.24,13.21-29.46,29.46-29.46s29.46,13.21,29.46,29.46C65.39,52.8,46.75,78.16,35.93,91.01z"/>
		</g>
	</g>
	<g>
		<g>
			<path fill="#FFFFFF" d="M35.93,17.85c-9.97,0-18.08,8.11-18.08,18.08S25.96,54,35.93,54S54,45.9,54,35.93
				S45.89,17.85,35.93,17.85z M35.93,47.53c-6.4,0-11.61-5.21-11.61-11.61s5.21-11.61,11.61-11.61s11.61,5.21,11.61,11.61
				S42.33,47.53,35.93,47.53z"/>
		</g>
	</g>
</g>
</svg>
