<?xml version="1.0" encoding="utf-8"?>
<!-- Generator: Adobe Illustrator 27.7.0, SVG Export Plug-In . SVG Version: 6.00 Build 0)  -->
<svg version="1.2" baseProfile="tiny" id="Layer_1" xmlns="http://www.w3.org/2000/svg" xmlns:xlink="http://www.w3.org/1999/xlink"
	 x="0px" y="0px" viewBox="0 0 30.97 30.97" overflow="visible" xml:space="preserve">
<g id="Layer_2_00000179606517295288017240000001958588368785577871_">
	<g id="whatsapp_00000016045795012874046740000000435115283413142156_">
		<path id="background_00000096779128481865064760000008327191603592955544_" fill="#299B1A" d="M4.22,0h22.53
			c2.33,0,4.22,1.89,4.22,4.22v22.53c0,2.33-1.89,4.22-4.22,4.22H4.22C1.89,30.97,0,29.08,0,26.75V4.22C0,1.89,1.89,0,4.22,0z"/>
		<g id="icon_00000046317426257018542860000010058659530985716153_">
			<path fill="#FFFFFF" d="M22.31,8.66c-3.73-3.77-9.81-3.8-13.58-0.07c-2.97,2.94-3.7,7.46-1.8,11.18l-1.02,4.95
				c-0.02,0.1,0,0.2,0.06,0.29c0.09,0.13,0.24,0.19,0.39,0.15l4.85-1.15c4.75,2.36,10.51,0.42,12.87-4.32
				C25.91,16.01,25.2,11.58,22.31,8.66L22.31,8.66z M20.8,20.72c-2.29,2.28-5.77,2.85-8.66,1.41l-0.68-0.33l-2.97,0.7l0.01-0.04
				l0.62-2.99l-0.33-0.65c-1.48-2.9-0.92-6.42,1.38-8.73c2.94-2.94,7.7-2.94,10.63,0c0.01,0.01,0.02,0.03,0.04,0.04
				C23.74,13.07,23.72,17.8,20.8,20.72z"/>
			<path fill="#FFFFFF" d="M20.54,18.53c-0.36,0.57-0.94,1.28-1.66,1.45c-1.27,0.31-3.21,0.01-5.63-2.25l-0.03-0.03
				c-2.13-1.97-2.68-3.61-2.55-4.92c0.07-0.74,0.69-1.41,1.21-1.84c0.29-0.25,0.73-0.21,0.98,0.08c0.04,0.05,0.08,0.11,0.11,0.17
				l0.78,1.76c0.1,0.23,0.07,0.5-0.09,0.7l-0.4,0.51c-0.17,0.22-0.2,0.52-0.06,0.76c0.22,0.39,0.75,0.96,1.34,1.49
				c0.66,0.6,1.4,1.15,1.86,1.33c0.25,0.1,0.55,0.04,0.74-0.15l0.46-0.46c0.18-0.18,0.44-0.25,0.69-0.18l1.86,0.53
				c0.37,0.11,0.58,0.51,0.47,0.88C20.59,18.42,20.57,18.48,20.54,18.53L20.54,18.53z"/>
		</g>
	</g>
</g>
</svg>
