<?xml version="1.0" encoding="utf-8"?>
<!-- Generator: Adobe Illustrator 27.7.0, SVG Export Plug-In . SVG Version: 6.00 Build 0)  -->
<svg version="1.2" baseProfile="tiny" id="Layer_1" xmlns="http://www.w3.org/2000/svg" xmlns:xlink="http://www.w3.org/1999/xlink"
	 x="0px" y="0px" viewBox="0 0 32.75 32.75" overflow="visible" xml:space="preserve">
<g>
	<path fill="#1B74E4" d="M27.78,32.75H4.96C2.22,32.75,0,30.52,0,27.78V4.96C0,2.22,2.22,0,4.96,0h22.82c2.74,0,4.96,2.22,4.96,4.96
		v22.82C32.75,30.52,30.52,32.75,27.78,32.75z"/>
	<g>
		<path id="f_00000120533518935549166400000012691898549473339521_" fill="#FFFFFF" d="M17.79,25.53v-8.36h2.8l0.42-3.26h-3.23
			v-2.08c0-0.94,0.26-1.59,1.61-1.59l1.72,0V7.34c-0.3-0.04-1.32-0.13-2.51-0.13c-2.49,0-4.19,1.52-4.19,4.31v2.4h-2.81v3.26h2.81
			v8.36H17.79z"/>
	</g>
</g>
</svg>
