<?xml version="1.0" encoding="utf-8"?>
<!-- Generator: Adobe Illustrator 27.7.0, SVG Export Plug-In . SVG Version: 6.00 Build 0)  -->
<svg version="1.2" baseProfile="tiny" id="Layer_1" xmlns="http://www.w3.org/2000/svg" xmlns:xlink="http://www.w3.org/1999/xlink"
	 x="0px" y="0px" viewBox="0 0 34.41 45.28" overflow="visible" xml:space="preserve">
<g>
	<g>
		<path d="M30.76,8.97h-5.43V4.06C25.32,1.82,23.5,0,21.27,0H4.06C1.82,0,0,1.82,0,4.06v37.16c0,2.24,1.82,4.06,4.06,4.06h17.2
			c2.24,0,4.06-1.83,4.06-4.06v-4.9h5.43c2.01,0,3.65-1.64,3.65-3.65V12.62C34.41,10.61,32.77,8.97,30.76,8.97z M12.51,34.19
			c-0.84,0-1.53-0.69-1.53-1.53V12.62c0-0.84,0.69-1.53,1.53-1.53h18.25c0.84,0,1.53,0.69,1.53,1.53v20.05
			c0,0.84-0.69,1.53-1.53,1.53H12.51z M23.21,8.97h-10.7c-2.01,0-3.65,1.64-3.65,3.65v20.05c0,2.01,1.64,3.65,3.65,3.65h10.69v4.91
			c0,1.07-0.87,1.94-1.94,1.94H4.06c-1.07,0-1.94-0.87-1.94-1.94V4.06c0-1.07,0.87-1.94,1.94-1.94h17.2c1.07,0,1.94,0.87,1.94,1.94
			V8.97z"/>
		<path d="M15.35,4.51H9.98c-0.57,0-1.03,0.46-1.03,1.03s0.46,1.03,1.03,1.03h5.37c0.57,0,1.03-0.46,1.03-1.03
			S15.92,4.51,15.35,4.51z"/>
		<path d="M7.25,39.74c0,0.58,0.48,1.06,1.06,1.06h8.71c0.58,0,1.06-0.48,1.06-1.06s-0.48-1.06-1.06-1.06H8.31
			C7.72,38.68,7.25,39.15,7.25,39.74z"/>
	</g>
	<g>
		<path d="M15.52,22.64l2.64-3.18c0.29-0.34,0.24-0.85-0.1-1.14c-0.34-0.29-0.85-0.24-1.14,0.1l-3.07,3.69
			c-0.25,0.3-0.25,0.74,0,1.04l3.07,3.69c0.15,0.19,0.38,0.29,0.62,0.29c0.19,0,0.37-0.07,0.52-0.19c0.34-0.29,0.39-0.8,0.1-1.14
			L15.52,22.64z"/>
		<path d="M21.18,19.03c-0.17-0.37-0.57-0.56-0.96-0.45c-0.21,0.06-0.38,0.19-0.49,0.38c-0.11,0.19-0.13,0.41-0.07,0.64l2.39,6.62
			c0.12,0.32,0.42,0.53,0.76,0.53c0,0,0,0,0,0h0c0.09,0,0.19-0.02,0.27-0.05c0.42-0.15,0.64-0.62,0.49-1.04L21.18,19.03z"/>
		<path d="M29.42,22.12l-3.07-3.69c-0.29-0.34-0.8-0.39-1.14-0.1c-0.34,0.29-0.39,0.8-0.1,1.14l2.64,3.18l-2.64,3.18
			c-0.12,0.15-0.19,0.33-0.19,0.52c0,0.45,0.36,0.81,0.81,0.81c0,0,0,0,0,0c0.24,0,0.47-0.11,0.62-0.29l3.07-3.69
			C29.67,22.86,29.67,22.42,29.42,22.12z"/>
	</g>
</g>
</svg>
