<?xml version="1.0" encoding="utf-8"?>
<!-- Generator: Adobe Illustrator 27.7.0, SVG Export Plug-In . SVG Version: 6.00 Build 0)  -->
<svg version="1.2" baseProfile="tiny" id="Layer_1" xmlns="http://www.w3.org/2000/svg" xmlns:xlink="http://www.w3.org/1999/xlink"
	 x="0px" y="0px" viewBox="0 0 52.14 50.19" overflow="visible" xml:space="preserve">
<g>
	<g id="g3788_00000178182832099108486670000008154143540714560444_" transform="translate(275.1328,164.3262)">
		<path d="M-247.11-128.88c-0.09,0-0.19-0.01-0.28-0.04c-0.26-0.07-0.48-0.25-0.61-0.48l-9.69-17.43c-0.13-0.24-0.16-0.51-0.09-0.77
			c0.07-0.26,0.25-0.48,0.48-0.61l4.51-2.51c0.49-0.27,1.11-0.1,1.38,0.4l9.69,17.43c0.27,0.49,0.1,1.11-0.4,1.38l-4.51,2.51
			C-246.77-128.92-246.94-128.88-247.11-128.88z M-255.42-146.93l8.7,15.65l2.73-1.52l-8.7-15.65L-255.42-146.93z"/>
	</g>
	<g id="g3800_00000008149555830301952760000009452001760755969711_" transform="translate(161.8437,93.6504)">
		<path d="M-145.36-51.01c-0.12,0-0.24-0.02-0.36-0.07c-0.28-0.11-0.5-0.33-0.6-0.61c-0.04-0.11-0.08-0.23-0.11-0.35
			c-0.09-0.33-0.13-0.68-0.13-1.03l0-3.61c0-0.37,0.2-0.71,0.52-0.89l2.51-1.4c0.49-0.27,1.11-0.1,1.38,0.4l2.02,3.63
			c0.13,0.24,0.16,0.51,0.09,0.77s-0.25,0.48-0.48,0.61l-4.34,2.42C-145.02-51.05-145.19-51.01-145.36-51.01z M-144.53-56.07l0,2.42
			l2.12-1.18l-1.03-1.85L-144.53-56.07z"/>
	</g>
	<g id="g3804_00000134932411463158556990000012850044293129715114_" transform="translate(49.3911,116.96)">
		<path d="M-45.09-76.5c-0.89,0-1.76-0.47-2.22-1.3l-1.75-3.15c-0.33-0.59-0.41-1.28-0.22-1.93c0.19-0.65,0.61-1.19,1.21-1.52
			l3.25-1.81c0.49-0.27,1.11-0.1,1.38,0.4l3.23,5.81c0.13,0.24,0.16,0.51,0.09,0.77c-0.07,0.26-0.25,0.48-0.48,0.61l-3.25,1.81
			C-44.26-76.6-44.68-76.5-45.09-76.5z M-44.74-83.94l-2.36,1.31c-0.24,0.13-0.33,0.44-0.19,0.68l1.75,3.15
			c0.09,0.16,0.23,0.22,0.3,0.24c0.07,0.02,0.22,0.04,0.38-0.04c0,0,0,0,0,0l2.36-1.31L-44.74-83.94z"/>
	</g>
	<g id="g3808_00000072259345638699351170000017738305301929861270_" transform="translate(288.9053,101.5605)">
		<path d="M-259.49-59.72c-0.51,0-0.96-0.39-1.01-0.91c-0.06-0.56,0.35-1.06,0.9-1.12c1.84-0.2,3.63-0.69,5.31-1.47
			c0.51-0.24,1.12-0.02,1.35,0.49c0.24,0.51,0.02,1.12-0.49,1.35c-1.88,0.87-3.88,1.43-5.95,1.65
			C-259.41-59.72-259.45-59.72-259.49-59.72z"/>
	</g>
	<g id="g3812_00000169558444588278796930000002091448676816041367_" transform="translate(444.4561,301.7529)">
		<path d="M-402.29-267.43c-0.2,0-0.41-0.06-0.59-0.19c-0.46-0.32-0.57-0.96-0.25-1.42c2.02-2.86,3.08-6.23,3.08-9.74
			c0-0.8-0.06-1.61-0.17-2.41c-0.08-0.56,0.31-1.07,0.87-1.15c0.56-0.08,1.07,0.31,1.15,0.87c0.12,0.89,0.19,1.79,0.19,2.69
			c0,3.93-1.19,7.71-3.45,10.91C-401.65-267.58-401.97-267.43-402.29-267.43z"/>
	</g>
	<g id="g3816_00000176003950073701178320000005308201040052392374_" transform="translate(220.3403,445.8213)">
		<path d="M-179.9-434.28c-0.27,0-0.53-0.1-0.73-0.31c-3.15-3.27-7.4-5.11-11.97-5.17c-1.71-0.02-3.39,0.21-5.01,0.68
			c-0.54,0.16-1.11-0.15-1.26-0.69c-0.16-0.54,0.15-1.11,0.69-1.26c1.81-0.53,3.7-0.79,5.61-0.76c5.12,0.07,9.88,2.13,13.41,5.8
			c0.39,0.41,0.38,1.05-0.03,1.44C-179.39-434.37-179.65-434.28-179.9-434.28z"/>
	</g>
	<g id="g3820_00000004513573996486894150000015249276769089838484_" transform="translate(96.0723,249.0234)">
		<path d="M-86.29-222.2c-0.49,0-0.92-0.36-1-0.86c-0.16-0.97-0.24-1.95-0.24-2.92c-0.02-4.75,1.73-9.31,4.93-12.82
			c0.38-0.42,1.02-0.45,1.44-0.07c0.42,0.38,0.45,1.02,0.07,1.44c-2.85,3.14-4.41,7.2-4.4,11.44c0,0.86,0.08,1.74,0.21,2.6
			c0.09,0.56-0.29,1.08-0.84,1.17C-86.18-222.2-86.24-222.2-86.29-222.2z"/>
	</g>
	<g id="g3824_00000035523853107496902920000010481044530286566074_" transform="translate(487.3672,301.7568)">
		<path d="M-437.74-280.3h-12.1c-1.38,0-2.51-1.13-2.51-2.51v-6.93c0-1.38,1.13-2.51,2.51-2.51h12.1c1.38,0,2.51,1.13,2.51,2.51
			v6.93C-435.23-281.43-436.35-280.3-437.74-280.3z M-449.84-290.21c-0.26,0-0.47,0.21-0.47,0.47v6.93c0,0.26,0.21,0.47,0.47,0.47
			h12.1c0.26,0,0.47-0.21,0.47-0.47v-6.93c0-0.26-0.21-0.47-0.47-0.47H-449.84z"/>
	</g>
	<g id="g3828_00000088120926560145778570000003910858735507765650_" transform="translate(358.1777,394.5156)">
		<path d="M-314.65-378c-0.98,0-1.95-0.31-2.77-0.94l-4.91-3.77c-0.45-0.34-0.53-0.98-0.19-1.43c0.34-0.45,0.98-0.53,1.43-0.19
			l4.91,3.77c0.9,0.7,2.16,0.69,3.06-0.01l4.92-3.83c0.44-0.35,1.08-0.27,1.43,0.18c0.35,0.44,0.27,1.08-0.18,1.43l-4.92,3.83
			C-312.68-378.32-313.67-378-314.65-378z"/>
	</g>
	<g id="g3832_00000059310328783236886550000007231985754932476811_" transform="translate(461.8271,175.3379)">
		<path d="M-418.62-127.77c-0.14,0-0.27-0.03-0.4-0.08c-0.37-0.16-0.62-0.53-0.62-0.94v-2.61h-4.81c-1.85,0-3.35-1.5-3.35-3.35
			v-4.95c0-1.85,1.5-3.35,3.35-3.35h9.65c1.85,0,3.35,1.5,3.35,3.35v4.95c0,1.7-1.27,3.11-2.91,3.32l-3.55,3.38
			C-418.11-127.86-418.36-127.77-418.62-127.77z M-424.45-141.01c-0.72,0-1.31,0.59-1.31,1.31v4.95c0,0.72,0.59,1.31,1.31,1.31h5.83
			c0.56,0,1.02,0.46,1.02,1.02v1.26l2.1-2c0.19-0.18,0.44-0.28,0.7-0.28c0.72,0,1.31-0.59,1.31-1.31v-4.95
			c0-0.72-0.59-1.31-1.31-1.31H-424.45z"/>
	</g>
	<g id="g3836_00000093874862992074214950000016666852505930139795_" transform="translate(209.0073,395.2295)">
		<path d="M-187.72-383.29h-11.35c-1.2,0-2.17-0.97-2.17-2.17v-7.59c0-1.2,0.97-2.17,2.17-2.17h11.35c1.2,0,2.17,0.97,2.17,2.17
			v7.59C-185.55-384.27-186.52-383.29-187.72-383.29z M-199.07-393.19c-0.08,0-0.14,0.06-0.14,0.14v7.59c0,0.08,0.06,0.14,0.14,0.14
			h11.35c0.08,0,0.14-0.06,0.14-0.14v-7.59c0-0.08-0.06-0.14-0.14-0.14H-199.07z"/>
	</g>
	<g id="g3840_00000152979480299496911500000010120298901677478024_" transform="translate(94.7476,403.2705)">
		<path d="M-75.44-391.34h-9.33c-0.62,0-1.16-0.37-1.39-0.94c-0.23-0.57-0.08-1.21,0.36-1.64c0,0,0,0,0,0l4.38-4.13
			c0.39-0.37,1-0.37,1.39,0l5.28,4.95c0.3,0.29,0.4,0.73,0.25,1.12C-74.65-391.59-75.02-391.34-75.44-391.34z M-84.4-392.43
			L-84.4-392.43C-84.4-392.43-84.4-392.43-84.4-392.43L-84.4-392.43z M-83.4-393.37h5.39l-2.7-2.53L-83.4-393.37z"/>
	</g>
	<g id="g3844_00000033338921524091849220000010334846260795399070_" transform="translate(165.0415,418.2471)">
		<path d="M-143.79-406.31h-1.94c-0.26,0-0.51-0.1-0.7-0.28l-2.5-2.34c-0.21-0.2-0.33-0.48-0.32-0.77c0.01-0.29,0.14-0.57,0.37-0.75
			l2.7-2.23c0.39-0.32,0.95-0.31,1.33,0.02l2.94,2.61c0.22,0.19,0.34,0.47,0.34,0.76v0.77
			C-141.58-407.3-142.58-406.31-143.79-406.31z M-145.33-408.35h1.54c0.09,0,0.17-0.08,0.17-0.17v-0.31l-1.94-1.73l-1.13,0.94
			L-145.33-408.35z"/>
	</g>
	<g id="g3848_00000163038875733053645930000011959988646601685692_" transform="translate(166.0728,460.8838)">
		<path d="M-149.16-455.63c-0.03,0-0.07,0-0.1-0.01c-0.03,0-0.07-0.01-0.1-0.01c-0.06-0.01-0.13-0.03-0.19-0.06
			c-0.06-0.03-0.12-0.06-0.18-0.09c-0.03-0.02-0.05-0.04-0.08-0.06c-0.03-0.02-0.05-0.04-0.07-0.07c-0.02-0.02-0.05-0.05-0.07-0.07
			c-0.02-0.03-0.04-0.05-0.06-0.08c-0.04-0.05-0.07-0.11-0.09-0.18c-0.03-0.06-0.05-0.13-0.06-0.19c-0.01-0.03-0.01-0.07-0.01-0.1
			c0-0.03-0.01-0.07-0.01-0.1c0-0.03,0-0.07,0.01-0.1c0-0.03,0.01-0.07,0.01-0.1c0.01-0.06,0.03-0.13,0.06-0.19
			c0.03-0.06,0.06-0.12,0.09-0.18c0.02-0.03,0.04-0.05,0.06-0.08c0.02-0.03,0.04-0.05,0.07-0.07c0.02-0.02,0.05-0.05,0.07-0.07
			c0.03-0.02,0.05-0.04,0.08-0.06c0.06-0.04,0.11-0.07,0.18-0.09c0.06-0.03,0.13-0.04,0.19-0.06c0.03-0.01,0.07-0.01,0.1-0.01
			c0.07-0.01,0.13-0.01,0.2,0c0.03,0,0.07,0.01,0.1,0.01c0.06,0.01,0.13,0.03,0.19,0.06c0.06,0.03,0.12,0.06,0.18,0.09
			c0.03,0.02,0.05,0.04,0.08,0.06c0.03,0.02,0.05,0.04,0.07,0.07c0.02,0.02,0.05,0.05,0.07,0.07c0.02,0.03,0.04,0.05,0.06,0.08
			c0.04,0.06,0.07,0.11,0.09,0.18c0.03,0.06,0.05,0.13,0.06,0.19c0.01,0.03,0.01,0.07,0.01,0.1c0,0.03,0.01,0.07,0.01,0.1
			c0,0.03,0,0.07-0.01,0.1c0,0.03-0.01,0.07-0.01,0.1c-0.01,0.06-0.03,0.13-0.06,0.19c-0.03,0.06-0.06,0.12-0.09,0.18
			c-0.02,0.03-0.04,0.05-0.06,0.08c-0.02,0.03-0.04,0.05-0.07,0.07c-0.02,0.02-0.05,0.05-0.07,0.07c-0.03,0.02-0.05,0.04-0.08,0.06
			c-0.06,0.04-0.11,0.07-0.18,0.09c-0.06,0.03-0.13,0.05-0.19,0.06c-0.03,0.01-0.07,0.01-0.1,0.01
			C-149.09-455.64-149.13-455.63-149.16-455.63z"/>
	</g>
	<g id="g3852_00000165915552398034323400000003817681244203029912_" transform="translate(148.6318,279.1289)">
		<path d="M-138.66-237.62c-0.36,0-0.7-0.19-0.89-0.52l-6.32-11.37c-0.13-0.24-0.16-0.51-0.09-0.77c0.07-0.26,0.25-0.48,0.48-0.61
			l11.49-6.39c1.77-0.98,2.53-3.94,2.67-4.99c0.06-0.43,0.39-0.78,0.82-0.86c0.43-0.08,0.86,0.12,1.08,0.51l9.69,17.43
			c0.21,0.38,0.16,0.86-0.14,1.18c-0.3,0.32-0.77,0.42-1.17,0.24c-0.98-0.43-3.89-1.34-5.65-0.36l-11.49,6.39
			C-138.32-237.66-138.49-237.62-138.66-237.62z M-143.6-249.61l5.33,9.59l10.6-5.89c1.56-0.87,3.45-0.78,4.94-0.49l-7.25-13.04
			c-0.54,1.42-1.47,3.08-3.02,3.94h0L-143.6-249.61z M-133.5-256.39L-133.5-256.39L-133.5-256.39z"/>
	</g>
	<g id="g3856_00000141428067470984469310000007621722654581405854_" transform="translate(97.9268,104.7715)">
		<path d="M-79.77-54.58c-0.21,0-0.42-0.06-0.59-0.19l-1.25-0.9c-2.96-2.12-5.46-4.93-7.22-8.11c-0.13-0.24-0.16-0.51-0.09-0.77
			c0.07-0.26,0.25-0.48,0.48-0.61l6.33-3.52c0.32-0.18,0.7-0.17,1.01,0.01c0.31,0.18,0.5,0.52,0.5,0.88l0,3.62
			c0,0.18,0.02,0.35,0.07,0.52c0.04,0.17,0.11,0.34,0.2,0.49c0.1,0.17,0.22,0.33,0.36,0.47l1.57,1.54c0.92,0.91,1.36,2.16,1.18,3.44
			c-0.17,1.28-0.92,2.38-2.05,3.01C-79.43-54.63-79.6-54.58-79.77-54.58z M-86.55-63.89c1.58,2.56,3.68,4.82,6.12,6.57l0.64,0.46
			c0.29-0.3,0.48-0.69,0.54-1.13c0.09-0.64-0.13-1.26-0.59-1.71l-1.57-1.54c-0.28-0.28-0.53-0.59-0.72-0.94
			c-0.17-0.31-0.3-0.63-0.39-0.97c-0.09-0.33-0.13-0.68-0.13-1.03l0-1.89L-86.55-63.89z"/>
	</g>
	<g id="g3860_00000135691322796618523890000006970271069000696479_" transform="translate(317.416,281.752)">
		<path d="M-288.05-254.5c-0.36,0-0.71-0.2-0.89-0.52l-3.63-6.53c-0.22-0.4-0.15-0.9,0.18-1.22c0.92-0.9,2.14-1.4,3.43-1.4
			c2.7,0,4.89,2.19,4.89,4.89c0,2.27-1.54,4.22-3.74,4.75C-287.89-254.51-287.97-254.5-288.05-254.5z M-290.36-261.77l2.78,4.99
			c0.9-0.49,1.48-1.44,1.48-2.5c0-1.57-1.28-2.86-2.86-2.86C-289.46-262.14-289.94-262.01-290.36-261.77z"/>
	</g>
	<g id="g3864_00000173861081210703421530000009918784132714322613_" transform="translate(242.7588,101.5605)">
		<path d="M-218.04-59.72c-0.03,0-0.07,0-0.1-0.01c-0.03,0-0.07-0.01-0.1-0.01c-0.06-0.01-0.13-0.03-0.19-0.06
			c-0.06-0.03-0.12-0.06-0.18-0.09c-0.03-0.02-0.05-0.04-0.08-0.06c-0.03-0.02-0.05-0.04-0.07-0.07c-0.02-0.02-0.05-0.05-0.07-0.07
			c-0.02-0.03-0.04-0.05-0.06-0.08c-0.04-0.05-0.07-0.11-0.09-0.18c-0.03-0.06-0.05-0.13-0.06-0.19c-0.01-0.03-0.01-0.07-0.02-0.1
			c0-0.03,0-0.07,0-0.1c0-0.03,0-0.07,0-0.1c0-0.03,0.01-0.07,0.02-0.1c0.01-0.06,0.03-0.13,0.06-0.19
			c0.03-0.06,0.06-0.12,0.09-0.18c0.02-0.03,0.04-0.05,0.06-0.08c0.02-0.03,0.04-0.05,0.07-0.07c0.02-0.02,0.05-0.05,0.07-0.07
			c0.03-0.02,0.05-0.04,0.08-0.06c0.06-0.04,0.11-0.07,0.18-0.09c0.06-0.03,0.13-0.05,0.19-0.06c0.03-0.01,0.07-0.01,0.1-0.01
			c0.07-0.01,0.13-0.01,0.2,0c0.03,0,0.07,0.01,0.1,0.01c0.06,0.01,0.13,0.03,0.19,0.06c0.06,0.03,0.12,0.06,0.18,0.09
			c0.03,0.02,0.06,0.04,0.08,0.06c0.03,0.02,0.05,0.04,0.07,0.07c0.02,0.02,0.05,0.05,0.07,0.07c0.02,0.03,0.04,0.05,0.06,0.08
			c0.04,0.05,0.07,0.11,0.09,0.18c0.03,0.06,0.04,0.13,0.06,0.19c0.01,0.03,0.01,0.07,0.01,0.1c0,0.03,0.01,0.07,0.01,0.1
			c0,0.03,0,0.07-0.01,0.1c0,0.03-0.01,0.07-0.01,0.1c-0.01,0.06-0.03,0.13-0.06,0.19c-0.03,0.06-0.06,0.12-0.09,0.18
			c-0.02,0.03-0.04,0.06-0.06,0.08c-0.02,0.03-0.04,0.05-0.07,0.07c-0.02,0.02-0.05,0.05-0.07,0.07c-0.03,0.02-0.05,0.04-0.08,0.06
			c-0.05,0.04-0.11,0.07-0.18,0.09c-0.06,0.03-0.13,0.05-0.19,0.06c-0.03,0.01-0.07,0.01-0.1,0.01
			C-217.97-59.72-218-59.72-218.04-59.72z"/>
	</g>
	<g id="g3868_00000047751346024273742540000018045805909320244886_" transform="translate(397.0322,128.4307)">
		<path d="M-356.6-89.33c-0.03,0-0.07,0-0.1-0.01c-0.03,0-0.07-0.01-0.1-0.01c-0.07-0.01-0.13-0.03-0.19-0.06
			c-0.06-0.03-0.12-0.06-0.18-0.09c-0.03-0.02-0.05-0.04-0.08-0.06c-0.03-0.02-0.05-0.04-0.07-0.07c-0.02-0.02-0.05-0.05-0.07-0.07
			c-0.02-0.03-0.04-0.05-0.06-0.08c-0.04-0.06-0.07-0.11-0.09-0.18c-0.03-0.06-0.05-0.13-0.06-0.19c-0.01-0.03-0.01-0.07-0.02-0.1
			c0-0.03,0-0.07,0-0.1c0-0.03,0-0.07,0-0.1c0-0.03,0.01-0.07,0.02-0.1c0.01-0.06,0.03-0.13,0.06-0.19
			c0.03-0.06,0.06-0.12,0.09-0.18c0.02-0.03,0.04-0.05,0.06-0.08c0.02-0.03,0.04-0.05,0.07-0.07c0.02-0.02,0.05-0.05,0.07-0.07
			c0.03-0.02,0.05-0.04,0.08-0.06c0.05-0.04,0.11-0.07,0.18-0.09c0.06-0.03,0.13-0.05,0.19-0.06c0.03-0.01,0.07-0.01,0.1-0.01
			c0.07-0.01,0.13-0.01,0.2,0c0.03,0,0.07,0.01,0.1,0.01c0.06,0.01,0.13,0.03,0.19,0.06c0.06,0.03,0.12,0.06,0.18,0.09
			c0.03,0.02,0.05,0.04,0.08,0.06c0.03,0.02,0.05,0.04,0.07,0.07c0.02,0.02,0.05,0.05,0.07,0.07c0.02,0.03,0.04,0.05,0.06,0.08
			c0.04,0.06,0.07,0.11,0.09,0.18c0.03,0.06,0.05,0.13,0.06,0.19c0.01,0.03,0.01,0.07,0.02,0.1c0,0.03,0,0.07,0,0.1
			c0,0.03,0,0.07,0,0.1c0,0.03-0.01,0.07-0.02,0.1c-0.01,0.06-0.03,0.13-0.06,0.19c-0.03,0.06-0.06,0.12-0.09,0.18
			c-0.02,0.03-0.04,0.05-0.06,0.08c-0.02,0.03-0.04,0.05-0.07,0.07c-0.02,0.02-0.05,0.05-0.07,0.07c-0.03,0.02-0.05,0.04-0.08,0.06
			c-0.05,0.04-0.11,0.07-0.18,0.09c-0.06,0.03-0.13,0.05-0.19,0.06c-0.03,0.01-0.07,0.01-0.1,0.01
			C-356.53-89.33-356.57-89.33-356.6-89.33z"/>
	</g>
	<g id="g3872_00000111876424235234153520000005765488094238169748_" transform="translate(431.0986,128.4307)">
		<path d="M-387.2-89.33c-0.03,0-0.07,0-0.1-0.01c-0.03,0-0.07-0.01-0.1-0.01c-0.06-0.01-0.13-0.03-0.19-0.06
			c-0.06-0.03-0.12-0.06-0.18-0.09c-0.03-0.02-0.06-0.04-0.08-0.06c-0.03-0.02-0.05-0.04-0.07-0.07c-0.02-0.02-0.05-0.05-0.07-0.07
			c-0.02-0.03-0.04-0.05-0.06-0.08c-0.04-0.06-0.07-0.11-0.09-0.18c-0.03-0.06-0.05-0.13-0.06-0.19c-0.01-0.03-0.01-0.07-0.02-0.1
			c0-0.03,0-0.07,0-0.1c0-0.03,0-0.07,0-0.1c0-0.03,0.01-0.07,0.02-0.1c0.01-0.06,0.03-0.13,0.06-0.19
			c0.03-0.06,0.06-0.12,0.09-0.18c0.02-0.03,0.04-0.05,0.06-0.08c0.02-0.03,0.04-0.05,0.07-0.07c0.02-0.02,0.05-0.05,0.07-0.07
			c0.03-0.02,0.05-0.04,0.08-0.06c0.05-0.04,0.11-0.07,0.18-0.09c0.06-0.03,0.13-0.05,0.19-0.06c0.03-0.01,0.07-0.01,0.1-0.01
			c0.07-0.01,0.13-0.01,0.2,0c0.03,0,0.07,0.01,0.1,0.01c0.06,0.01,0.13,0.03,0.19,0.06c0.06,0.03,0.12,0.06,0.18,0.09
			c0.03,0.02,0.05,0.04,0.08,0.06c0.03,0.02,0.05,0.04,0.07,0.07c0.02,0.02,0.05,0.05,0.07,0.07c0.02,0.03,0.04,0.05,0.06,0.08
			c0.04,0.06,0.07,0.11,0.09,0.18c0.03,0.06,0.05,0.13,0.06,0.19c0.01,0.03,0.01,0.07,0.02,0.1c0,0.03,0.01,0.07,0.01,0.1
			c0,0.03,0,0.07-0.01,0.1c0,0.03-0.01,0.07-0.02,0.1c-0.01,0.06-0.03,0.13-0.06,0.19c-0.03,0.06-0.06,0.12-0.09,0.18
			c-0.02,0.03-0.04,0.05-0.06,0.08c-0.02,0.03-0.04,0.05-0.07,0.07c-0.02,0.02-0.05,0.05-0.07,0.07c-0.03,0.02-0.05,0.04-0.08,0.06
			c-0.05,0.04-0.11,0.07-0.18,0.09c-0.06,0.03-0.13,0.05-0.19,0.06c-0.03,0.01-0.07,0.01-0.1,0.01
			C-387.13-89.33-387.16-89.33-387.2-89.33z"/>
	</g>
</g>
</svg>
