<?xml version="1.0" encoding="utf-8"?>
<!-- Generator: Adobe Illustrator 27.7.0, SVG Export Plug-In . SVG Version: 6.00 Build 0)  -->
<svg version="1.2" baseProfile="tiny" id="Layer_1" xmlns="http://www.w3.org/2000/svg" xmlns:xlink="http://www.w3.org/1999/xlink"
	 x="0px" y="0px" viewBox="0 0 44.15 43.97" overflow="visible" xml:space="preserve">
<g>
	<path d="M40.27,0H3.88C1.74,0,0,1.74,0,3.88v36.21c0,2.14,1.74,3.88,3.88,3.88h36.39c2.14,0,3.88-1.74,3.88-3.88V3.88
		C44.15,1.74,42.41,0,40.27,0z M3.88,2.59h36.39c0.71,0,1.29,0.58,1.29,1.29v6.47H2.59V3.88C2.59,3.17,3.17,2.59,3.88,2.59z
		 M40.27,41.39H3.88c-0.71,0-1.29-0.58-1.29-1.29V12.93h38.97v27.16C41.56,40.81,40.98,41.39,40.27,41.39z"/>
	<path d="M26.46,16.92c-0.66-0.28-1.42,0.02-1.7,0.68L17,35.7c-0.28,0.66,0.02,1.42,0.68,1.7c0.66,0.28,1.42-0.02,1.7-0.68
		l7.76-18.11C27.42,17.96,27.12,17.2,26.46,16.92L26.46,16.92z"/>
	<path d="M15.32,21.18c-0.45-0.56-1.26-0.65-1.82-0.2l-6.47,5.17c-0.65,0.52-0.65,1.5,0,2.02l6.47,5.17
		c0.56,0.45,1.37,0.36,1.82-0.2c0.45-0.56,0.36-1.37-0.2-1.82l-5.2-4.16l5.2-4.16C15.68,22.55,15.77,21.74,15.32,21.18L15.32,21.18z
		"/>
	<path d="M37.11,26.15l-6.47-5.17c-0.56-0.45-1.37-0.36-1.82,0.2c-0.45,0.56-0.36,1.37,0.2,1.82l5.2,4.16l-5.2,4.16
		c-0.56,0.45-0.65,1.26-0.2,1.82c0.45,0.56,1.26,0.65,1.82,0.2l6.47-5.17C37.75,27.65,37.75,26.67,37.11,26.15z"/>
	<circle cx="6.55" cy="6.47" r="1.29"/>
	<circle cx="11.73" cy="6.47" r="1.29"/>
	<circle cx="16.9" cy="6.47" r="1.29"/>
	<path d="M29.83,7.76h7.76c0.71,0,1.29-0.58,1.29-1.29s-0.58-1.29-1.29-1.29h-7.76c-0.71,0-1.29,0.58-1.29,1.29
		S29.12,7.76,29.83,7.76z"/>
</g>
</svg>
