<?xml version="1.0" encoding="utf-8"?>
<!-- Generator: Adobe Illustrator 27.7.0, SVG Export Plug-In . SVG Version: 6.00 Build 0)  -->
<svg version="1.2" baseProfile="tiny" id="Layer_1" xmlns="http://www.w3.org/2000/svg" xmlns:xlink="http://www.w3.org/1999/xlink"
	 x="0px" y="0px" viewBox="0 0 54.78 49.25" overflow="visible" xml:space="preserve">
<g>
	<path fill="#FFFFFF" d="M17.06,30.97c-2.27,0-4.41-0.88-6.01-2.49c-3.32-3.32-3.32-8.71,0-12.03c1.61-1.61,3.74-2.49,6.01-2.49
		c2.27,0,4.41,0.88,6.01,2.49c1.61,1.61,2.49,3.74,2.49,6.01s-0.88,4.41-2.49,6.01C21.47,30.09,19.34,30.97,17.06,30.97z
		 M17.06,16.1c-1.7,0-3.3,0.66-4.5,1.86c-2.48,2.48-2.48,6.52,0,9c1.2,1.2,2.8,1.86,4.5,1.86s3.3-0.66,4.5-1.86
		c1.2-1.2,1.86-2.8,1.86-4.5s-0.66-3.3-1.86-4.5C20.36,16.76,18.76,16.1,17.06,16.1z"/>
	<path fill="#FFFFFF" d="M53.71,39.58H1.07C0.48,39.58,0,39.1,0,38.51V6.42c0-0.59,0.48-1.07,1.07-1.07h52.64
		c0.59,0,1.07,0.48,1.07,1.07v32.1C54.78,39.1,54.3,39.58,53.71,39.58z M2.14,37.44h50.5V7.49H2.14V37.44z"/>
	<path fill="#FFFFFF" d="M49.43,35.3H5.35c-0.59,0-1.07-0.48-1.07-1.07V10.7c0-0.59,0.48-1.07,1.07-1.07h44.08
		c0.59,0,1.07,0.48,1.07,1.07v23.54C50.5,34.83,50.02,35.3,49.43,35.3z M6.42,33.16h41.94v-21.4H6.42V33.16z"/>
	<path fill="#FFFFFF" d="M51.46,2.14H3.32c-0.59,0-1.07-0.48-1.07-1.07S2.73,0,3.32,0h48.14c0.59,0,1.07,0.48,1.07,1.07
		S52.05,2.14,51.46,2.14z"/>
	<path fill="#FFFFFF" d="M46.64,6.95c-0.59,0-1.07-0.48-1.07-1.07V1.6c0-0.59,0.48-1.07,1.07-1.07c0.59,0,1.07,0.48,1.07,1.07v4.28
		C47.71,6.47,47.24,6.95,46.64,6.95z M37.02,6.95c-0.59,0-1.07-0.48-1.07-1.07V1.6c0-0.59,0.48-1.07,1.07-1.07s1.07,0.48,1.07,1.07
		v4.28C38.09,6.47,37.61,6.95,37.02,6.95z M27.39,6.95c-0.59,0-1.07-0.48-1.07-1.07V1.6c0-0.59,0.48-1.07,1.07-1.07
		c0.59,0,1.07,0.48,1.07,1.07v4.28C28.46,6.47,27.98,6.95,27.39,6.95z M17.76,6.95c-0.59,0-1.07-0.48-1.07-1.07V1.6
		c0-0.59,0.48-1.07,1.07-1.07s1.07,0.48,1.07,1.07v4.28C18.83,6.47,18.35,6.95,17.76,6.95z M8.13,6.95c-0.59,0-1.07-0.48-1.07-1.07
		V1.6c0-0.59,0.48-1.07,1.07-1.07S9.2,1.01,9.2,1.6v4.28C9.2,6.47,8.72,6.95,8.13,6.95z"/>
	<path fill="#FFFFFF" d="M31.13,48.18v-9.09c0-0.57-0.43-1.08-1-1.11c-0.62-0.04-1.14,0.46-1.14,1.07v9.14
		c0,0.59,0.48,1.07,1.07,1.07h0C30.65,49.25,31.13,48.78,31.13,48.18z"/>
	<path fill="#FFFFFF" d="M25.78,48.18v-9.09c0-0.57-0.43-1.08-1-1.11c-0.62-0.04-1.14,0.46-1.14,1.07v9.14
		c0,0.59,0.48,1.07,1.07,1.07h0C25.3,49.25,25.78,48.78,25.78,48.18z"/>
	<path fill="#FFFFFF" d="M39.75,28.89h-9.9c-0.59,0-1.07-0.48-1.07-1.07c0-0.59,0.48-1.07,1.07-1.07h9.9c0.59,0,1.07,0.48,1.07,1.07
		C40.82,28.41,40.34,28.89,39.75,28.89z"/>
	<path fill="#FFFFFF" d="M45.15,23.54h-15.3c-0.59,0-1.07-0.48-1.07-1.07s0.48-1.07,1.07-1.07h15.3c0.59,0,1.07,0.48,1.07,1.07
		S45.74,23.54,45.15,23.54z"/>
	<path fill="#FFFFFF" d="M45.15,18.19h-15.3c-0.59,0-1.07-0.48-1.07-1.07s0.48-1.07,1.07-1.07h15.3c0.59,0,1.07,0.48,1.07,1.07
		S45.74,18.19,45.15,18.19z"/>
</g>
</svg>
