<?xml version="1.0" encoding="utf-8"?>
<!-- Generator: Adobe Illustrator 27.7.0, SVG Export Plug-In . SVG Version: 6.00 Build 0)  -->
<svg version="1.2" baseProfile="tiny" id="Layer_1" xmlns="http://www.w3.org/2000/svg" xmlns:xlink="http://www.w3.org/1999/xlink"
	 x="0px" y="0px" viewBox="0 0 46.65 46.65" overflow="visible" xml:space="preserve">
<g>
	<path fill="#FFFFFF" d="M32.45,27.35c-0.25-0.44-0.81-0.59-1.24-0.33c-0.44,0.25-0.59,0.81-0.33,1.24l1.6,2.76l-3.01,8.42H17.28
		l-3.01-8.42l8.19-14.18v6.01c0,0.5,0.41,0.91,0.91,0.91s0.91-0.41,0.91-0.91v-6.01l2.95,5.1c0.25,0.44,0.81,0.59,1.24,0.33
		c0.44-0.25,0.59-0.81,0.33-1.24l-4.65-8.05c-0.01-0.02-0.02-0.04-0.03-0.05c0,0,0-0.01-0.01-0.01c-0.01-0.02-0.03-0.04-0.04-0.06
		c0-0.01-0.01-0.01-0.01-0.02c-0.02-0.02-0.03-0.04-0.05-0.06c0,0,0,0,0,0c-0.02-0.02-0.04-0.04-0.06-0.05c0,0-0.01-0.01-0.01-0.01
		c-0.02-0.01-0.04-0.03-0.05-0.04c0,0-0.01,0-0.01-0.01c-0.02-0.01-0.04-0.03-0.06-0.04c-0.01,0-0.01-0.01-0.02-0.01
		c-0.02-0.01-0.04-0.02-0.05-0.03c-0.01,0-0.01-0.01-0.02-0.01c-0.02-0.01-0.05-0.02-0.07-0.02c-0.01,0-0.02-0.01-0.03-0.01
		c-0.02-0.01-0.04-0.01-0.06-0.02c0,0-0.01,0-0.01,0c-0.03-0.01-0.05-0.01-0.08-0.01c-0.01,0-0.01,0-0.02,0c-0.03,0-0.05,0-0.08,0
		c-0.03,0-0.06,0-0.08,0c-0.01,0-0.01,0-0.02,0c-0.03,0-0.05,0.01-0.08,0.01c-0.01,0-0.01,0-0.02,0c-0.02,0-0.04,0.01-0.06,0.02
		c-0.01,0-0.02,0.01-0.03,0.01c-0.02,0.01-0.05,0.02-0.07,0.02c-0.01,0-0.01,0.01-0.02,0.01c-0.02,0.01-0.03,0.02-0.05,0.02
		c-0.01,0-0.02,0.01-0.02,0.01c-0.02,0.01-0.04,0.02-0.06,0.04c0,0-0.01,0.01-0.01,0.01c-0.02,0.01-0.04,0.03-0.05,0.04
		c-0.01,0-0.01,0.01-0.02,0.01c-0.02,0.02-0.04,0.03-0.06,0.05c0,0,0,0,0,0c-0.02,0.02-0.03,0.04-0.05,0.05
		c0,0.01-0.01,0.01-0.01,0.02c-0.01,0.02-0.03,0.03-0.04,0.05c0,0-0.01,0.01-0.01,0.01c-0.01,0.02-0.02,0.03-0.03,0.05l-10.1,17.49
		c-0.13,0.23-0.16,0.51-0.07,0.76l2.93,8.21h-1.4c-0.5,0-0.91,0.41-0.91,0.91v5.39c0,0.5,0.41,0.91,0.91,0.91h18.85
		c0.5,0,0.91-0.41,0.91-0.91v-5.39c0-0.5-0.41-0.91-0.91-0.91h-1.4l2.93-8.21c0.09-0.25,0.06-0.53-0.07-0.76L32.45,27.35z
		 M31.88,44.83H14.85v-3.56h1.78c0,0,0,0,0.01,0c0,0,0,0,0.01,0h13.45c0,0,0,0,0.01,0c0,0,0,0,0.01,0h1.78V44.83z"/>
	<path fill="#FFFFFF" d="M30.75,24.65c0-0.5-0.41-0.91-0.91-0.91c-0.5,0-0.91,0.41-0.91,0.91c0,0.5,0.41,0.91,0.91,0.91
		C30.34,25.56,30.75,25.15,30.75,24.65z"/>
	<path fill="#FFFFFF" d="M19.76,30.93c0,1.99,1.62,3.6,3.6,3.6c1.99,0,3.6-1.62,3.6-3.6c0-1.99-1.62-3.6-3.6-3.6
		C21.38,27.33,19.76,28.95,19.76,30.93z M25.15,30.93c0,0.98-0.8,1.78-1.78,1.78c-0.98,0-1.78-0.8-1.78-1.78
		c0-0.98,0.8-1.78,1.78-1.78C24.35,29.15,25.15,29.95,25.15,30.93z"/>
	<path fill="#FFFFFF" d="M43.05,7.21c1.99,0,3.6-1.62,3.6-3.6c0-1.99-1.62-3.6-3.6-3.6c-1.67,0-3.08,1.15-3.49,2.69H26.97V0.91
		c0-0.5-0.41-0.91-0.91-0.91h-5.38c-0.5,0-0.91,0.41-0.91,0.91v1.78H7.09C6.68,1.15,5.28,0,3.6,0C1.62,0,0,1.62,0,3.6
		c0,1.99,1.62,3.6,3.6,3.6c1.67,0,3.08-1.15,3.49-2.69h6.52c-4.51,2.5-7.57,7.3-7.57,12.81v1.93H4.26c-0.5,0-0.91,0.41-0.91,0.91
		v5.39c0,0.5,0.41,0.91,0.91,0.91h5.39c0.5,0,0.91-0.41,0.91-0.91v-5.39c0-0.5-0.41-0.91-0.91-0.91H7.87v-1.93
		c0-6.76,5.26-12.31,11.9-12.78V6.3c0,0.5,0.41,0.91,0.91,0.91h5.38c0.5,0,0.91-0.41,0.91-0.91V4.55c6.64,0.47,11.9,6.02,11.9,12.78
		v1.93h-1.78c-0.5,0-0.91,0.41-0.91,0.91v5.39c0,0.5,0.41,0.91,0.91,0.91h5.39c0.5,0,0.91-0.41,0.91-0.91v-5.39
		c0-0.5-0.41-0.91-0.91-0.91h-1.78v-1.93c0-3.91-1.52-7.58-4.29-10.35C35.42,6,34.32,5.17,33.14,4.52h6.42
		C39.97,6.06,41.38,7.21,43.05,7.21z M8.74,24.64H5.17v-3.56h1.77c0,0,0.01,0,0.01,0s0.01,0,0.01,0h1.77V24.64z M41.56,24.64H38
		v-3.56h1.77c0,0,0.01,0,0.01,0s0.01,0,0.01,0h1.77V24.64z M43.05,1.82c0.98,0,1.78,0.8,1.78,1.78c0,0.98-0.8,1.78-1.78,1.78
		c-0.98,0-1.78-0.8-1.78-1.78c0,0,0,0,0,0c0,0,0,0,0,0C41.27,2.62,42.07,1.82,43.05,1.82z M3.6,5.39c-0.98,0-1.78-0.8-1.78-1.78
		c0-0.98,0.8-1.78,1.78-1.78c0.98,0,1.78,0.8,1.78,1.78C5.39,4.59,4.59,5.39,3.6,5.39z M25.15,5.39h-3.56V3.6c0,0,0,0,0,0
		c0,0,0,0,0,0V1.82h3.56V5.39z"/>
</g>
</svg>
