<?xml version="1.0" encoding="utf-8"?>
<!-- Generator: Adobe Illustrator 27.7.0, SVG Export Plug-In . SVG Version: 6.00 Build 0)  -->
<svg version="1.2" baseProfile="tiny" id="Layer_1" xmlns="http://www.w3.org/2000/svg" xmlns:xlink="http://www.w3.org/1999/xlink"
	 x="0px" y="0px" viewBox="0 0 56.77 62.39" overflow="visible" xml:space="preserve">
<g>
	<path d="M43.8,16.14l-7.76-1.19l-3.48-7.42c-0.36-0.78-1.29-1.11-2.06-0.74c-0.33,0.15-0.59,0.42-0.74,0.74l-3.49,7.42l-7.76,1.19
		c-0.85,0.13-1.43,0.92-1.3,1.77c0.05,0.32,0.2,0.62,0.42,0.85l5.66,5.8l-1.34,8.21c-0.14,0.85,0.44,1.64,1.28,1.78
		c0.34,0.06,0.7-0.01,1-0.17l6.92-3.83l6.92,3.83c0.75,0.41,1.69,0.14,2.11-0.61c0.17-0.3,0.23-0.66,0.17-1l-1.34-8.21l5.66-5.8
		c0.6-0.61,0.59-1.6-0.03-2.19C44.42,16.34,44.12,16.19,43.8,16.14L43.8,16.14z M36.98,23.23c-0.39,0.4-0.57,0.97-0.48,1.52
		l1.09,6.66l-5.57-3.08c-0.53-0.29-1.18-0.29-1.71,0l-5.57,3.08l1.09-6.66c0.09-0.55-0.09-1.12-0.48-1.52l-4.68-4.8l6.39-0.97
		c0.58-0.09,1.09-0.46,1.34-1l2.78-5.92l2.78,5.92c0.25,0.54,0.75,0.91,1.34,1l6.38,0.97L36.98,23.23z"/>
	<path d="M30.13,0h2.05v4.1h-2.05V0z"/>
	<path d="M48.19,16.11h4.1v2.05h-4.1V16.11z"/>
	<path d="M10.1,16.11h4.1v2.05h-4.1V16.11z"/>
	<path d="M16.88,8.41l1.45-1.45l2.9,2.9l-1.45,1.45L16.88,8.41z"/>
	<path d="M40.93,10.01l2.9-2.9l1.45,1.45l-2.9,2.9L40.93,10.01z"/>
	<g>
		<path d="M56.18,40.04L56.18,40.04c-0.55-0.92-2.81-3.66-8.73-0.21l-10.28,5.99c-0.42,0.25-0.85,0.43-1.3,0.56
			c0.14-0.27,0.26-0.57,0.35-0.89c0.54-2.02-0.66-4.13-2.73-4.8c-0.04-0.01-0.09-0.03-0.13-0.03c-2.94-0.53-5.86-1.58-8.19-2.43
			c-0.81-0.29-1.58-0.57-2.24-0.79c-2.67-0.87-5.08,0.2-7.08,1.36l-7.55,4.37l-0.66-1.18C7.3,41.4,6.75,40.97,6.1,40.79
			c-0.65-0.18-1.34-0.1-1.93,0.24l-2.88,1.63c-1.22,0.69-1.65,2.24-0.96,3.46L8.81,61.1c0.33,0.59,0.88,1.01,1.53,1.19
			c0.23,0.06,0.46,0.09,0.68,0.09c0.43,0,0.86-0.11,1.24-0.33l2.88-1.63c1.22-0.69,1.65-2.24,0.96-3.46l-0.82-1.45l1.61-0.93
			l13.12,3.52c0.74,0.2,1.47,0.3,2.19,0.3c1.46,0,2.87-0.4,4.15-1.19l18.65-11.49C56.76,44.65,57.32,41.94,56.18,40.04z
			 M14.14,58.64L14.14,58.64l-2.88,1.63c-0.15,0.09-0.3,0.06-0.37,0.04c-0.07-0.02-0.21-0.08-0.3-0.23L2.11,45.11
			c-0.13-0.23-0.05-0.54,0.18-0.67l2.88-1.63c0.08-0.05,0.17-0.06,0.24-0.06c0.06,0,0.1,0.01,0.13,0.02
			c0.07,0.02,0.21,0.08,0.3,0.23l8.48,14.98C14.46,58.21,14.37,58.51,14.14,58.64z M53.93,43.98L35.28,55.47
			c-1.45,0.89-3.05,1.12-4.74,0.66L17.02,52.5c-0.26-0.07-0.54-0.03-0.78,0.1l-1.96,1.13L9.3,44.95l7.57-4.38
			c1.69-0.98,3.52-1.8,5.42-1.18c0.62,0.2,1.34,0.46,2.18,0.76c2.39,0.86,5.36,1.94,8.45,2.5c1.01,0.36,1.58,1.34,1.32,2.3
			c-0.34,1.27-1.4,1.42-2.25,1.33c-1.51-0.31-2.94-0.72-4.46-1.15c-0.72-0.21-1.47-0.42-2.24-0.63c-0.55-0.15-1.11,0.18-1.25,0.72
			c-0.15,0.55,0.18,1.11,0.72,1.25c0.75,0.2,1.49,0.41,2.2,0.62c1.57,0.45,3.06,0.87,4.66,1.2l0.04,0.01l1.28,0.21
			c1.94,0.31,3.66,0.01,5.26-0.92l10.28-5.99c2.9-1.69,5.12-1.88,5.94-0.51C54.98,42.03,54.74,43.49,53.93,43.98z"/>
		<path d="M4.79,44.74c-0.56,0.08-0.95,0.61-0.87,1.17c0.08,0.56,0.61,0.95,1.17,0.87c0.56-0.08,0.95-0.61,0.87-1.17
			C5.88,45.04,5.36,44.65,4.79,44.74z"/>
	</g>
</g>
</svg>
