<?xml version="1.0" encoding="utf-8"?>
<!-- Generator: Adobe Illustrator 27.8.0, SVG Export Plug-In . SVG Version: 6.00 Build 0)  -->
<svg version="1.2" baseProfile="tiny" id="Layer_1" xmlns="http://www.w3.org/2000/svg" xmlns:xlink="http://www.w3.org/1999/xlink"
	 x="0px" y="0px" viewBox="0 0 51.63 49.37" overflow="visible" xml:space="preserve">
<g>
	<path d="M32.82,41.39H3.88c-0.71,0-1.29-0.58-1.29-1.29V12.93l41.56,0.09V3.88c0-2.14-1.74-3.88-3.88-3.88H3.88
		C1.74,0,0,1.74,0,3.88v36.21c0,2.14,1.74,3.88,3.88,3.88h28.94c0.71,0,1.29-0.58,1.29-1.29l0,0
		C34.12,41.97,33.54,41.39,32.82,41.39z M2.59,3.88c0-0.71,0.58-1.29,1.29-1.29h36.39c0.71,0,1.29,0.58,1.29,1.29v6.47H2.59V3.88z"
		/>
	<circle cx="6.55" cy="6.47" r="1.29"/>
	<circle cx="11.73" cy="6.47" r="1.29"/>
	<circle cx="16.9" cy="6.47" r="1.29"/>
	<path d="M29.83,7.76h7.76c0.71,0,1.29-0.58,1.29-1.29s-0.58-1.29-1.29-1.29h-7.76c-0.71,0-1.29,0.58-1.29,1.29
		S29.12,7.76,29.83,7.76z"/>
	<g>
		<path d="M43.65,24.55c-0.39-0.53-1.18-0.53-1.57,0L34.3,35.22c-0.2,0.28-0.24,0.65-0.1,0.97l3.28,7.36h-0.46
			c-0.54,0-0.97,0.43-0.97,0.97v3.88c0,0.54,0.43,0.97,0.97,0.97h11.64c0.54,0,0.97-0.43,0.97-0.97v-3.88
			c0-0.54-0.43-0.97-0.97-0.97h-0.41l3.28-7.36c0.14-0.32,0.1-0.69-0.1-0.97L43.65,24.55z M42.85,35.79c0.53,0,0.97,0.44,0.97,0.97
			s-0.44,0.97-0.97,0.97s-0.97-0.44-0.97-0.97S42.31,35.79,42.85,35.79z M47.7,47.43H38v-1.94h9.7V47.43z M46.13,43.55h-6.53
			l-3.41-7.64l5.68-7.78v5.89c-1.13,0.4-1.94,1.48-1.94,2.74c0,1.6,1.31,2.91,2.91,2.91c1.6,0,2.91-1.31,2.91-2.91
			c0-1.26-0.81-2.34-1.94-2.74v-5.95l5.72,7.84L46.13,43.55z"/>
		<path d="M45.76,18.34v-0.97c0-0.54-0.43-0.97-0.97-0.97h-3.88c-0.54,0-0.97,0.43-0.97,0.97v0.97h-7.99
			c-0.4-1.13-1.48-1.94-2.74-1.94c-1.6,0-2.91,1.31-2.91,2.91s1.31,2.91,2.91,2.91c1.26,0,2.34-0.81,2.74-1.94h3.63
			c-3.49,2.02-6.16,5.52-7,9.77c-1.3,0.29-2.28,1.45-2.28,2.84c0,1.6,1.31,2.91,2.91,2.91c1.6,0,2.91-1.31,2.91-2.91
			c0-1.14-0.65-2.12-1.61-2.6c1-4.78,4.68-8.55,9.43-9.67v0.63c0,0.54,0.43,0.97,0.97,0.97h3.88c0.54,0,0.97-0.43,0.97-0.97V18.34z
			 M29.21,20.28c-0.53,0-0.97-0.44-0.97-0.97s0.44-0.97,0.97-0.97c0.53,0,0.97,0.44,0.97,0.97S29.74,20.28,29.21,20.28z
			 M29.21,33.85c-0.53,0-0.97-0.44-0.97-0.97s0.44-0.97,0.97-0.97c0.53,0,0.97,0.44,0.97,0.97S29.74,33.85,29.21,33.85z
			 M43.82,20.28h-1.94v-1.94h1.94V20.28z"/>
	</g>
</g>
</svg>
