<?xml version="1.0" encoding="utf-8"?>
<!-- Generator: Adobe Illustrator 27.8.0, SVG Export Plug-In . SVG Version: 6.00 Build 0)  -->
<svg version="1.2" baseProfile="tiny" id="Layer_1" xmlns="http://www.w3.org/2000/svg" xmlns:xlink="http://www.w3.org/1999/xlink"
	 x="0px" y="0px" viewBox="0 0 54.82 54.23" overflow="visible" xml:space="preserve">
<g id="Layer_4">
	<g>
		<path fill="#FFFFFF" d="M44.35,0H9.85C4.32,0,0,4.29,0,9.77v19.61c0,5.48,4.32,9.78,9.85,9.78h4.25c0.86,0,1.57-0.7,1.57-1.57
			c0-0.86-0.7-1.57-1.57-1.57H9.85c-3.77,0-6.71-2.92-6.71-6.65V9.77c0-3.72,2.95-6.64,6.71-6.64h34.5c3.98,0,7.34,3.04,7.34,6.64
			v4.33c0,0.86,0.7,1.57,1.57,1.57s1.57-0.7,1.57-1.57V9.77C54.82,4.47,50.03,0,44.35,0L44.35,0z"/>
		<path fill="#FFFFFF" d="M25.18,28.55l8.17-6.37c0.89-0.66,1.42-1.69,1.42-2.77c0-0.97-0.44-1.86-1.2-2.43l-8.41-6.4
			c-0.57-0.42-1.21-0.64-1.85-0.64c-1.64,0-2.93,1.43-2.93,3.25v12.79c0,1.82,1.29,3.25,2.93,3.25
			C23.94,29.21,24.58,28.99,25.18,28.55L25.18,28.55z M23.5,13.26l8.14,6.15c0,0.04-0.03,0.17-0.18,0.28l-7.95,6.19L23.5,13.26
			L23.5,13.26z"/>
		<path fill="#FFFFFF" d="M48.63,39.32c3.15,0,5.72-2.57,5.72-5.72s-2.57-5.72-5.72-5.72s-5.72,2.57-5.72,5.72
			c0,0.3,0.04,0.59,0.09,0.88l-8.31,5.01l-9.4-5.67c-0.74-0.45-1.7-0.21-2.15,0.53c-0.45,0.74-0.21,1.7,0.53,2.15l7.99,4.82
			l-7.99,4.82c-0.74,0.45-0.98,1.41-0.53,2.15c0.29,0.49,0.81,0.76,1.34,0.76c0.28,0,0.55-0.07,0.81-0.23l9.4-5.67l8.26,4.98
			c-0.01,0.13-0.04,0.25-0.04,0.38c0,3.15,2.57,5.72,5.72,5.72s5.72-2.57,5.72-5.72c0-3.15-2.57-5.72-5.72-5.72
			c-1.89,0-3.55,0.93-4.59,2.34l-6.32-3.81l6.61-3.99C45.38,38.54,46.91,39.32,48.63,39.32L48.63,39.32z M48.63,31.01
			c1.43,0,2.59,1.16,2.59,2.59s-1.16,2.59-2.59,2.59c-1.43,0-2.59-1.16-2.59-2.59S47.2,31.01,48.63,31.01z M48.63,45.93
			c1.43,0,2.59,1.16,2.59,2.59s-1.16,2.59-2.59,2.59c-1.43,0-2.59-1.16-2.59-2.59S47.2,45.93,48.63,45.93z"/>
	</g>
</g>
</svg>
