<?xml version="1.0" encoding="utf-8"?>
<!-- Generator: Adobe Illustrator 27.7.0, SVG Export Plug-In . SVG Version: 6.00 Build 0)  -->
<svg version="1.2" baseProfile="tiny" id="Layer_1" xmlns="http://www.w3.org/2000/svg" xmlns:xlink="http://www.w3.org/1999/xlink"
	 x="0px" y="0px" viewBox="0 0 40.45 40.45" overflow="visible" xml:space="preserve">
<g id="Layer_2_00000001662605514610401290000000893371733084597179_">
	<g id="whatsapp_00000069398176450993028270000005760211979632148892_">
		<path id="background_00000114785883432946391180000000819605032732233900_" fill="#299B1A" d="M5.52,0h29.42
			c3.05,0,5.52,2.47,5.52,5.52v29.42c0,3.05-2.47,5.52-5.52,5.52H5.52C2.47,40.45,0,37.98,0,34.93V5.52C0,2.47,2.47,0,5.52,0z"/>
		<g id="icon_00000083781359521705717140000008110457725641077132_">
			<path fill="#FFFFFF" d="M29.14,11.31c-4.87-4.92-12.81-4.96-17.74-0.09c-3.87,3.84-4.83,9.74-2.36,14.6l-1.33,6.46
				c-0.03,0.13,0,0.27,0.08,0.37c0.11,0.17,0.32,0.25,0.51,0.2l6.33-1.5c6.2,3.08,13.73,0.55,16.81-5.65
				C33.84,20.9,32.91,15.12,29.14,11.31L29.14,11.31z M27.17,27.06c-2.99,2.98-7.54,3.72-11.31,1.84l-0.88-0.44l-3.88,0.92
				l0.01-0.05l0.8-3.91l-0.43-0.85c-1.93-3.79-1.2-8.39,1.81-11.4c3.83-3.83,10.05-3.83,13.89,0c0.02,0.02,0.03,0.03,0.05,0.05
				C31,17.07,30.98,23.25,27.17,27.06z"/>
			<path fill="#FFFFFF" d="M26.82,24.2c-0.48,0.75-1.23,1.67-2.17,1.89c-1.65,0.4-4.19,0.01-7.35-2.93l-0.04-0.03
				c-2.78-2.58-3.5-4.72-3.33-6.42c0.1-0.97,0.9-1.84,1.58-2.41c0.38-0.32,0.95-0.28,1.27,0.1c0.06,0.07,0.1,0.14,0.14,0.22
				l1.02,2.3c0.14,0.3,0.09,0.66-0.11,0.92l-0.52,0.67c-0.23,0.28-0.26,0.68-0.08,0.99c0.29,0.51,0.98,1.25,1.75,1.95
				c0.86,0.78,1.82,1.5,2.43,1.74c0.33,0.14,0.71,0.06,0.96-0.2l0.6-0.6c0.24-0.23,0.58-0.32,0.9-0.23l2.43,0.69
				c0.49,0.15,0.76,0.66,0.61,1.15C26.89,24.06,26.86,24.13,26.82,24.2L26.82,24.2z"/>
		</g>
	</g>
</g>
</svg>
